<?xml version="1.0" encoding="utf-8"?>
<svg xmlns="http://www.w3.org/2000/svg" fill="none" height="32" viewBox="0 0 59 32" width="59">
<path clip-rule="evenodd" d="M35.5342 6.45247C35.8961 4.67757 35.5948 3.1178 34.6044 1.95867C33.6549 0.847363 32.2753 0.345915 30.9569 0.194518C29.624 0.0414542 28.1909 0.222021 26.8954 0.639804C25.6066 1.0554 24.3439 1.74168 23.4203 2.69957C20.5826 5.64233 19.9115 9.03679 20.821 12.203C21.0144 12.8763 21.2768 13.5319 21.5988 14.1653C21.1238 14.318 20.6408 14.4643 20.1514 14.6044C13.6658 16.4611 6.38608 17.1317 2.39062 17.1317C1.5622 17.1317 0.890625 17.8033 0.890625 18.6317C0.890625 19.4602 1.5622 20.1317 2.39062 20.1317C6.61313 20.1317 14.177 19.4352 20.977 17.4886C21.7707 17.2613 22.5586 17.0158 23.3333 16.7507C24.3402 17.9394 25.5547 18.9978 26.8867 19.8816C34.9883 25.2574 44.7209 26.2325 53.8572 24.5307C53.6754 24.8626 53.4843 25.2088 53.2882 25.5641L53.2881 25.5644C52.551 26.8999 51.7423 28.3652 51.0805 29.6889C50.71 30.4299 51.0103 31.3309 51.7513 31.7013C52.4922 32.0718 53.3932 31.7715 53.7637 31.0305C54.3965 29.765 55.1558 28.3892 55.882 27.0735L55.882 27.0734L55.8823 27.0729C56.1765 26.5398 56.4653 26.0166 56.738 25.5146C56.7376 25.5153 56.7374 25.5157 56.7375 25.5157C56.7376 25.5158 56.7392 25.5131 56.743 25.5073C56.7519 25.4934 56.7726 25.4613 56.811 25.4042C56.8642 25.3251 56.9299 25.2296 57.0096 25.1136L57.045 25.0621C57.2309 24.7917 57.4714 24.4407 57.699 24.0818C57.92 23.7333 58.1625 23.3253 58.3338 22.9441C58.4175 22.7579 58.5133 22.515 58.5663 22.2515C58.6065 22.0513 58.6977 21.4962 58.3721 20.9441C58.1554 20.5766 57.8414 20.3383 57.6806 20.2237C57.4834 20.0833 57.2733 19.9633 57.0988 19.8704C56.9195 19.775 56.7449 19.691 56.6111 19.6276L56.5148 19.5822L56.4394 19.5466C56.4167 19.5358 56.3994 19.5275 56.386 19.521L56.3696 19.5129C55.1516 18.8749 53.8836 18.3139 52.6688 17.7764L52.6687 17.7764L52.6671 17.7757C52.3035 17.6149 51.9447 17.4561 51.5934 17.298C50.6838 16.8887 50.2004 16.664 49.5593 16.366L49.5587 16.3658C49.2557 16.2249 48.9175 16.0677 48.4825 15.8669C47.7303 15.5198 46.8391 15.8481 46.4919 16.6003C46.1448 17.3525 46.4731 18.2437 47.2253 18.5908C47.6458 18.7849 47.9785 18.9395 48.28 19.0797L48.2808 19.08C48.931 19.3822 49.4358 19.6169 50.3623 20.0338C50.753 20.2096 51.1374 20.3797 51.5166 20.5476L51.5167 20.5476C52.2471 20.8708 52.9579 21.1854 53.6563 21.5153C44.9691 23.2064 35.9331 22.284 28.5454 17.3819C27.7266 16.8386 26.9846 16.2333 26.3359 15.5856C27.7537 14.9615 29.0834 14.2557 30.2696 13.4586C32.8662 11.7135 34.9287 9.42211 35.5342 6.45247ZM56.738 25.5146C56.7395 25.5118 56.7411 25.5089 56.7426 25.506L56.7403 25.5104C56.7392 25.5123 56.7384 25.5137 56.738 25.5146ZM23.7044 11.3747C23.8741 11.9654 24.1243 12.5537 24.4466 13.1297C25.9918 12.4931 27.3974 11.7743 28.5962 10.9686C30.8406 9.46035 32.2067 7.75578 32.5947 5.85315C32.8198 4.74879 32.5734 4.19988 32.3236 3.90747C32.0329 3.56723 31.4797 3.27427 30.6146 3.17493C29.7641 3.07726 28.7631 3.18964 27.8161 3.49502C26.8623 3.80259 26.0738 4.2697 25.5798 4.78198C23.4714 6.96842 23.0964 9.25829 23.7044 11.3747Z" fill="#D0D0D0" fill-rule="evenodd"/>
</svg>